<svg width="1200" height="740" viewBox="0 0 1200 740" fill="none" xmlns="http://www.w3.org/2000/svg">
  <rect width="1200" height="740" rx="32" fill="#0B1121"/>
  <rect x="56" y="56" width="1088" height="628" rx="20" fill="#111827" stroke="#1F2937" stroke-width="6"/>
  <rect x="118" y="122" width="262" height="460" rx="14" fill="#1E293B"/>
  <rect x="140" y="160" width="220" height="16" rx="8" fill="#22D3EE"/>
  <rect x="140" y="194" width="170" height="12" rx="6" fill="#475569"/>
  <rect x="140" y="236" width="220" height="300" rx="12" fill="#0F172A" stroke="#334155"/>
  <rect x="432" y="122" width="644" height="88" rx="14" fill="#0F172A" stroke="#334155"/>
  <rect x="460" y="154" width="226" height="20" rx="10" fill="#67E8F9"/>
  <rect x="714" y="154" width="140" height="20" rx="10" fill="#14B8A6"/>
  <rect x="882" y="154" width="164" height="20" rx="10" fill="#334155"/>
  <rect x="432" y="236" width="300" height="346" rx="14" fill="#0F172A" stroke="#334155"/>
  <rect x="462" y="278" width="240" height="14" rx="7" fill="#38BDF8"/>
  <rect x="462" y="316" width="180" height="11" rx="5.5" fill="#475569"/>
  <rect x="462" y="348" width="210" height="11" rx="5.5" fill="#475569"/>
  <rect x="462" y="380" width="160" height="11" rx="5.5" fill="#475569"/>
  <rect x="760" y="236" width="316" height="346" rx="14" fill="#0F172A" stroke="#334155"/>
  <path d="M790 518L842 470L882 492L934 430L986 468L1034 420" stroke="#22D3EE" stroke-width="10" stroke-linecap="round"/>
  <circle cx="842" cy="470" r="8" fill="#67E8F9"/>
  <circle cx="934" cy="430" r="8" fill="#67E8F9"/>
  <circle cx="1034" cy="420" r="8" fill="#67E8F9"/>
</svg>
